# xmcd
#
# Track frame offsets: 
#        150
#        16519
#        31576
#        45351
#        62985
#        75876
#        91901
#        108696
#        123451
#        139146
#        151621
#        167447
#        184199
#        196984
#        210492
#        225558
#        236285
#        253699
#        266684
#        284986
#
# Disc length: 4025 seconds
#
# Revision: 0
# Processed by: cddbd v1.5.2PL0 Copyright (c) Steve Scherf et al.
# Submitted via: ExactAudioCopy v0.99pb4
#
DISCID=fd0fb714
DTITLE=Various Artist - 100 Hollandse Hits - CD 2
DYEAR=2010
DGENRE=National Folk
TTITLE0=Jij Denkt Maar Dat Je Alles Mag Van Mij - Frans Duyts
TTITLE1=Ik Heb Jou Niets Te Zeggen - Heeren van Holland
TTITLE2=Jammie Jammie - Gebroeders Ko
TTITLE3='t is Nu Voorbij - Dirk Meeldijk
TTITLE4=Wie Weet Wat Liefde Is - Marga Bult and Wim Rijken
TTITLE5=Alisha - Grad Damen
TTITLE6=Mandolinen in Nicosia - Zangeres Zonder Naam
TTITLE7=Zeven Brieven - Arne Jansen
TTITLE8=Mensen Kijken En Wijzen - John de Bever
TTITLE9=Ik Zit In Een Cafeetje - Jettie Pallettie
TTITLE10=En Heel Vaak Huil Je  - Henk Janssen
TTITLE11=Waarom Fluister Ik Je Naam Nog - Benny Neyman
TTITLE12=Haar Naam Is Anita - John Meijer
TTITLE13=Rosemarie - Zware Jongens
TTITLE14=Bonnie, Kom Je Buiten Spelen - Bonnie St. Claire
TTITLE15=Zilverdraden Tussen Het Goud - Goldfinger
TTITLE16=De Liefde Van Mijn Leven  - Angelino
TTITLE17=Mijn Kijkdoos  - Hanny
TTITLE18=Leef Jij Maar Raak - Arno
TTITLE19=Ik Heb Niemand Nodig - Franky Falcon
EXTD=
EXTT0=
EXTT1=
EXTT2=
EXTT3=
EXTT4=
EXTT5=
EXTT6=
EXTT7=
EXTT8=
EXTT9=
EXTT10=
EXTT11=
EXTT12=
EXTT13=
EXTT14=
EXTT15=
EXTT16=
EXTT17=
EXTT18=
EXTT19=
PLAYORDER=
